<?xml version="1.0" encoding="UTF-8"?>
<svg width="29px" height="34px" viewBox="0 0 29 34" version="1.1" xmlns="http://www.w3.org/2000/svg" xmlns:xlink="http://www.w3.org/1999/xlink">
    <!-- Generator: Sketch 51.3 (57544) - http://www.bohemiancoding.com/sketch -->
    <title>logo-h</title>
    <desc>Created with Sketch.</desc>
    <defs></defs>
    <g id="Symbols" stroke="none" stroke-width="1" fill="none" fill-rule="evenodd">
        <g id="Top-Bar" transform="translate(-21.000000, -15.000000)" fill="#FFFFFF">
            <path d="M50,37.9984894 L49.9628681,40 L36.9667093,40 L36.7439181,38.7915408 C37.6845971,38.1369554 38.7366566,37.5453199 39.900128,37.0166163 L39.900128,29.3126888 L30.8770807,29.3126888 L30.8770807,37.4320242 L34.2560819,37.9984894 L34.2189501,40 L21.2227913,40 L21,38.7915408 C21.9406791,38.1369554 22.9927385,37.5453199 24.15621,37.0166163 L24.15621,17.4546828 L21.2970551,17.0015106 L21.3341869,15 L33.8104994,15 L34.0332907,16.2084592 C33.142121,16.8630446 32.0900615,17.4546801 30.8770807,17.9833837 L30.8770807,25.7628399 L39.900128,25.7628399 L39.900128,17.4546828 L37.0409731,17.0015106 L37.078105,15 L49.5544174,15 L49.7772087,16.2084592 C48.8860391,16.8630446 47.8339796,17.4546801 46.6209987,17.9833837 L46.6209987,37.4320242 L50,37.9984894 Z M22.1516171,48.4500024 L21,47.3500071 L25.554149,43 L29.5324894,46.8000094 L33.5108298,43 L37.4891702,46.8000094 L41.4675106,43 L45.445851,46.8000094 L48.8483829,43.5499976 L50,44.6499929 L45.445851,49 L41.4675106,45.1999906 L37.4891702,49 L33.5108298,45.1999906 L29.5324894,49 L25.554149,45.1999906 L22.1516171,48.4500024 Z" id="logo-h"></path>
        </g>
    </g>
</svg>