<?xml version="1.0" encoding="UTF-8"?>
<svg width="197px" height="94px" viewBox="0 0 197 94" version="1.1" xmlns="http://www.w3.org/2000/svg" xmlns:xlink="http://www.w3.org/1999/xlink">
    <!-- Generator: Sketch 51.3 (57544) - http://www.bohemiancoding.com/sketch -->
    <title>logo-full</title>
    <desc>Created with Sketch.</desc>
    <defs></defs>
    <g id="V2" stroke="none" stroke-width="1" fill="none" fill-rule="evenodd">
        <g id="sign-in" transform="translate(-622.000000, -239.000000)" fill="#FFFFFF">
            <path d="M663.769141,297.570303 L663.715659,300.404829 L644.997094,300.404829 L644.676204,298.693417 C646.031079,297.766398 647.546376,296.928527 649.222142,296.179781 L649.222142,285.269532 L636.226109,285.269532 L636.226109,296.768079 L641.092936,297.570303 L641.039455,300.404829 L622.32089,300.404829 L622,298.693417 C623.354874,297.766398 624.870172,296.928527 626.545937,296.179781 L626.545937,268.476305 L622.427853,267.834526 L622.481335,265 L640.451157,265 L640.772047,266.711412 C639.488481,267.638431 637.973184,268.476301 636.226109,269.225048 L636.226109,280.24226 L649.222142,280.24226 L649.222142,268.476305 L645.104057,267.834526 L645.157539,265 L663.127361,265 L663.448251,266.711412 C662.164686,267.638431 660.649389,268.476301 658.902314,269.225048 L658.902314,296.768079 L663.769141,297.570303 Z M687.835867,288.157539 L674.3585,288.050576 C674.608082,290.368124 675.437039,292.150827 676.845395,293.398737 C678.253752,294.646648 680.027541,295.270594 682.166816,295.270594 C684.056509,295.270594 686.320541,294.593167 688.958981,293.238292 L690.296021,296.286744 L681.899408,301.046608 L679.439254,301.207053 C675.481594,301.207053 672.192508,299.959161 669.571896,297.46334 C666.951284,294.967519 665.640997,291.776481 665.640997,287.890131 C665.640997,283.932472 666.969111,280.572077 669.625377,277.808847 C672.281644,275.045616 675.499422,273.664021 679.278809,273.664021 C682.737304,273.664021 685.553974,274.706903 687.728904,276.792696 C689.903834,278.878489 690.973455,281.632765 690.937801,285.055605 L687.835867,288.157539 Z M677.834805,278.102995 C676.123385,279.172633 675.035936,281.133606 674.572427,283.985973 L682.594669,283.504639 C682.380741,282.0428 681.837017,280.785995 680.96348,279.734185 C680.089942,278.682374 679.047061,278.13865 677.834805,278.102995 Z M705.859171,282.862859 L705.859171,295.538002 C708.248028,296.108475 710.191174,296.85721 711.688667,297.784229 L711.581704,300.404829 L692.756176,300.404829 L692.649212,298.532972 C693.754505,297.89119 695.073705,297.302898 696.606852,296.768079 L696.606852,279.065665 L692.649212,278.316922 L692.381804,275.749804 C695.555063,274.537548 699.084814,273.877948 702.971164,273.770985 L705.859171,277.782106 L705.859171,278.744775 L710.084219,273.984911 C710.619037,273.806638 711.296464,273.717503 712.11652,273.717503 C713.542703,273.717503 714.85299,274.074044 716.047419,274.787135 C717.241847,275.500227 718.070804,276.498541 718.534314,277.782106 L712.383928,285.53694 C709.995071,283.540283 708.087579,282.452834 706.661395,282.274561 L705.859171,282.862859 Z M764.207612,295.80541 C765.919032,296.411538 767.291713,297.071138 768.325696,297.784229 L768.165252,300.404829 L754.955293,300.404829 L754.955293,285.590421 C754.955293,281.989308 753.814363,280.188778 751.53247,280.188778 C750.534141,280.188778 749.428865,280.474011 748.216609,281.044484 L748.270091,296.019336 C749.375383,296.482846 750.445005,297.071138 751.478988,297.784229 L751.318543,300.404829 L739.017772,300.404829 L739.017772,285.590421 C739.017772,281.989308 737.876842,280.188778 735.594949,280.188778 C734.703584,280.188778 733.633962,280.456184 732.386052,280.991003 L732.386052,296.072818 C733.669617,296.643291 734.703584,297.213756 735.487985,297.784229 L735.381022,300.404829 L719.283056,300.404829 L719.176093,298.532972 C720.281385,297.89119 721.600585,297.302898 723.133732,296.768079 L723.133732,279.065665 L719.176093,278.316922 L718.908685,275.749804 C722.081943,274.537548 725.611694,273.877948 729.498044,273.770985 L732.386052,276.658992 L732.386052,278.156477 C735.202764,276.088511 737.80551,274.680176 740.194367,273.93143 C743.545899,274.038393 746.023855,275.321939 747.628312,277.782106 L747.949201,278.477367 C750.837223,276.266782 753.564758,274.751485 756.131888,273.93143 C759.48342,274.038393 761.961376,275.321939 763.565833,277.782106 C763.958033,278.495198 764.171958,280.117457 764.207612,282.648933 L764.207612,295.80541 Z M791.804125,288.157539 L778.326758,288.050576 C778.57634,290.368124 779.405297,292.150827 780.813653,293.398737 C782.22201,294.646648 783.995799,295.270594 786.135074,295.270594 C788.024767,295.270594 790.288799,294.593167 792.927239,293.238292 L794.264279,296.286744 L785.867666,301.046608 L783.407512,301.207053 C779.449852,301.207053 776.160766,299.959161 773.540154,297.46334 C770.919542,294.967519 769.609255,291.776481 769.609255,287.890131 C769.609255,283.932472 770.937369,280.572077 773.593635,277.808847 C776.249902,275.045616 779.46768,273.664021 783.247067,273.664021 C786.705562,273.664021 789.522232,274.706903 791.697162,276.792696 C793.872092,278.878489 794.941713,281.632765 794.906059,285.055605 L791.804125,288.157539 Z M781.803063,278.102995 C780.091643,279.172633 779.004194,281.133606 778.540685,283.985973 L786.562927,283.504639 C786.348999,282.0428 785.805275,280.785995 784.931738,279.734185 C784.0582,278.682374 783.015319,278.13865 781.803063,278.102995 Z M805.86979,280.028334 C805.86979,280.670116 806.101541,281.249495 806.565051,281.766486 C807.02856,282.283478 808.686474,283.281791 811.538841,284.761456 C814.391208,286.241122 816.316527,287.613803 817.314855,288.879541 C818.313183,290.145279 818.81234,291.580354 818.81234,293.184811 C818.81234,295.609323 817.814027,297.597036 815.81737,299.148011 C813.820713,300.698985 811.164486,301.474461 807.848609,301.474461 C804.104878,301.474461 800.379029,300.511801 796.670952,298.586454 L799.719404,291.580362 C802.821353,293.96922 806.030218,295.751922 809.346094,296.928524 C809.987877,296.35805 810.308764,295.69845 810.308764,294.949704 C810.308764,294.272267 810.050272,293.666148 809.53328,293.131329 C809.016289,292.59651 807.376202,291.624937 804.612972,290.216581 C801.849741,288.808225 799.977903,287.489025 798.997402,286.258942 C798.016901,285.028858 797.526658,283.629437 797.526658,282.060635 C797.526658,279.564814 798.62302,277.541446 800.815777,275.990472 C803.008534,274.439497 805.851945,273.664021 809.346094,273.664021 C812.590662,273.664021 815.353851,274.252313 817.635745,275.428915 L817.742708,277.300771 C817.742708,279.15481 817.439648,281.026648 816.83352,282.916341 L812.127138,282.916341 L810.469208,278.049514 L808.009054,277.782106 C806.582871,278.209961 805.86979,278.958696 805.86979,280.028334 Z M686.828427,331.013637 L684,328.18521 L695.18521,317 L704.956206,326.770996 L714.727202,317 L724.498198,326.770996 L734.269194,317 L744.04019,326.770996 L752.396973,318.414214 L755.2254,321.242641 L744.04019,332.42785 L734.269194,322.656854 L724.498198,332.42785 L714.727202,322.656854 L704.956206,332.42785 L695.18521,322.656854 L686.828427,331.013637 Z M672.777,255 L672.777,239.38 L679.399,239.38 C680.11767,239.38 680.78133,239.530332 681.39,239.831 C681.99867,240.131668 682.522998,240.527664 682.963,241.019 C683.403002,241.510336 683.747665,242.067664 683.997,242.691 C684.246335,243.314336 684.371,243.94133 684.371,244.572 C684.371,245.232003 684.253668,245.873664 684.019,246.497 C683.784332,247.120336 683.454335,247.673998 683.029,248.158 C682.603665,248.642002 682.090336,249.030665 681.489,249.324 C680.887664,249.617335 680.22767,249.764 679.509,249.764 L675.813,249.764 L675.813,255 L672.777,255 Z M675.813,247.102 L679.333,247.102 C679.890336,247.102 680.355998,246.874669 680.73,246.42 C681.104002,245.965331 681.291,245.349337 681.291,244.572 C681.291,244.175998 681.232334,243.820335 681.115,243.505 C680.997666,243.189665 680.843668,242.922001 680.653,242.702 C680.462332,242.481999 680.238668,242.317001 679.982,242.207 C679.725332,242.096999 679.465001,242.042 679.201,242.042 L675.813,242.042 L675.813,247.102 Z M686.483,255 L686.483,239.38 L693.391,239.38 C694.10967,239.38 694.77333,239.530332 695.382,239.831 C695.99067,240.131668 696.514998,240.527664 696.955,241.019 C697.395002,241.510336 697.739665,242.067664 697.989,242.691 C698.238335,243.314336 698.363,243.94133 698.363,244.572 C698.363,245.584005 698.110003,246.504329 697.604,247.333 C697.097997,248.161671 696.412338,248.759332 695.547,249.126 L699.111,255 L695.701,255 L692.511,249.764 L689.519,249.764 L689.519,255 L686.483,255 Z M689.519,247.102 L693.325,247.102 C693.603668,247.102 693.863999,247.036001 694.106,246.904 C694.348001,246.771999 694.556999,246.592334 694.733,246.365 C694.909001,246.137666 695.048333,245.870002 695.151,245.562 C695.253667,245.253998 695.305,244.924002 695.305,244.572 C695.305,244.205331 695.246334,243.868002 695.129,243.56 C695.011666,243.251998 694.854001,242.984334 694.656,242.757 C694.457999,242.529666 694.230668,242.353667 693.974,242.229 C693.717332,242.104333 693.457001,242.042 693.193,242.042 L689.519,242.042 L689.519,247.102 Z M707.779,255.11 C706.634994,255.11 705.597338,254.886336 704.666,254.439 C703.734662,253.991664 702.935337,253.39767 702.268,252.657 C701.600663,251.91633 701.083668,251.069338 700.717,250.116 C700.350331,249.162662 700.167,248.187338 700.167,247.19 C700.167,246.148661 700.361331,245.151338 700.75,244.198 C701.138669,243.244662 701.673997,242.401337 702.356,241.668 C703.038003,240.934663 703.848329,240.351669 704.787,239.919 C705.725671,239.486331 706.744994,239.27 707.845,239.27 C708.974339,239.27 710.004662,239.500998 710.936,239.963 C711.867338,240.425002 712.662997,241.029996 713.323,241.778 C713.983003,242.526004 714.496331,243.376662 714.863,244.33 C715.229668,245.283338 715.413,246.251328 715.413,247.234 C715.413,248.275339 715.222335,249.268995 714.841,250.215 C714.459665,251.161005 713.93167,251.996996 713.257,252.723 C712.58233,253.449004 711.775671,254.028331 710.837,254.461 C709.898329,254.893669 708.879005,255.11 707.779,255.11 Z M703.247,247.19 C703.247,247.86467 703.349666,248.51733 703.555,249.148 C703.760334,249.77867 704.057331,250.335998 704.446,250.82 C704.834669,251.304002 705.311331,251.692665 705.876,251.986 C706.440669,252.279335 707.08233,252.426 707.801,252.426 C708.534337,252.426 709.183331,252.275668 709.748,251.975 C710.312669,251.674332 710.789331,251.274669 711.178,250.776 C711.566669,250.277331 711.859999,249.716336 712.058,249.093 C712.256001,248.469664 712.355,247.835337 712.355,247.19 C712.355,246.51533 712.248668,245.86267 712.036,245.232 C711.823332,244.60133 711.522669,244.044002 711.134,243.56 C710.745331,243.075998 710.268669,242.691001 709.704,242.405 C709.139331,242.118999 708.505004,241.976 707.801,241.976 C707.067663,241.976 706.415003,242.126332 705.843,242.427 C705.270997,242.727668 704.794335,243.123664 704.413,243.615 C704.031665,244.106336 703.742001,244.663664 703.544,245.287 C703.345999,245.910336 703.247,246.544663 703.247,247.19 Z M716.953,251.81 C717.158334,251.956667 717.502998,252.117999 717.987,252.294 C718.471002,252.470001 719.02833,252.558 719.659,252.558 C720.275003,252.558 720.766331,252.451668 721.133,252.239 C721.499668,252.026332 721.778332,251.700002 721.969,251.26 C722.159668,250.819998 722.284333,250.27367 722.343,249.621 C722.401667,248.96833 722.431,248.202004 722.431,247.322 L722.431,239.38 L725.467,239.38 L725.467,247.322 C725.467,248.510006 725.404667,249.591662 725.28,250.567 C725.155333,251.542338 724.891335,252.374663 724.488,253.064 C724.084665,253.753337 723.50167,254.288665 722.739,254.67 C721.97633,255.051335 720.949673,255.242 719.659,255.242 C718.338993,255.242 717.209671,254.919337 716.271,254.274 L716.953,251.81 Z M739.393,252.338 L739.393,255 L728.547,255 L728.547,239.38 L739.195,239.38 L739.195,242.042 L731.583,242.042 L731.583,245.804 L738.161,245.804 L738.161,248.268 L731.583,248.268 L731.583,252.338 L739.393,252.338 Z M740.823,247.08 C740.823,246.126662 740.995332,245.184338 741.34,244.253 C741.684668,243.321662 742.186997,242.489337 742.847,241.756 C743.507003,241.022663 744.313662,240.428669 745.267,239.974 C746.220338,239.519331 747.305661,239.292 748.523,239.292 C749.960341,239.292 751.203328,239.60733 752.252,240.238 C753.300672,240.86867 754.081664,241.689995 754.595,242.702 L752.263,244.308 C752.057666,243.867998 751.808335,243.497668 751.515,243.197 C751.221665,242.896332 750.906335,242.658001 750.569,242.482 C750.231665,242.305999 749.879668,242.177667 749.513,242.097 C749.146331,242.016333 748.787002,241.976 748.435,241.976 C747.67233,241.976 747.008669,242.129998 746.444,242.438 C745.879331,242.746002 745.410002,243.145664 745.036,243.637 C744.661998,244.128336 744.379668,244.685664 744.189,245.309 C743.998332,245.932336 743.903,246.551997 743.903,247.168 C743.903,247.857337 744.012999,248.520997 744.233,249.159 C744.453001,249.797003 744.764665,250.357998 745.168,250.842 C745.571335,251.326002 746.055331,251.714665 746.62,252.008 C747.184669,252.301335 747.80433,252.448 748.479,252.448 C748.831002,252.448 749.197665,252.404 749.579,252.316 C749.960335,252.228 750.323332,252.088668 750.668,251.898 C751.012668,251.707332 751.331665,251.461668 751.625,251.161 C751.918335,250.860332 752.152999,250.497335 752.329,250.072 L754.815,251.502 C754.565665,252.08867 754.210002,252.605664 753.748,253.053 C753.285998,253.500336 752.765336,253.877998 752.186,254.186 C751.606664,254.494002 750.987003,254.728666 750.327,254.89 C749.666997,255.051334 749.02167,255.132 748.391,255.132 C747.276328,255.132 746.257005,254.897336 745.333,254.428 C744.408995,253.958664 743.613337,253.346337 742.946,252.591 C742.278663,251.835663 741.758002,250.977671 741.384,250.017 C741.009998,249.056329 740.823,248.077338 740.823,247.08 Z M768.543,242.042 L763.549,242.042 L763.549,255 L760.535,255 L760.535,242.042 L755.541,242.042 L755.541,239.38 L768.543,239.38 L768.543,242.042 Z" id="logo-full"></path>
        </g>
    </g>
</svg>