<?xml version="1.0" standalone="no"?>
<!DOCTYPE svg PUBLIC "-//W3C//DTD SVG 20010904//EN"
 "http://www.w3.org/TR/2001/REC-SVG-20010904/DTD/svg10.dtd">
<svg version="1.0" xmlns="http://www.w3.org/2000/svg"
 width="1088.000000pt" height="1088.000000pt" viewBox="0 0 1088.000000 1088.000000"
 preserveAspectRatio="xMidYMid meet">
<metadata>
Created by potrace 1.11, written by Peter Selinger 2001-2013
</metadata>
<g transform="translate(0.000000,1088.000000) scale(0.100000,-0.100000)"
fill="#000000" stroke="none">
<path d="M902 10657 c-2 -122 -4 -264 -5 -315 -3 -95 0 -104 38 -109 35 -5
279 -44 305 -49 14 -2 43 -6 65 -9 22 -3 51 -8 65 -11 14 -3 40 -7 59 -9 32
-4 64 -9 121 -19 41 -8 103 -17 135 -21 17 -2 44 -7 60 -11 17 -4 38 -6 48 -6
16 1 17 -155 17 -3132 l0 -3133 -42 -19 c-24 -10 -46 -23 -50 -29 -4 -5 -8 -7
-8 -2 0 9 -304 -144 -308 -155 -2 -4 -12 -8 -23 -8 -10 0 -19 -4 -19 -10 0 -5
-5 -10 -10 -10 -11 0 -170 -88 -180 -99 -3 -4 -21 -14 -40 -24 -70 -37 -95
-52 -114 -69 -11 -10 -28 -20 -38 -24 -10 -3 -18 -10 -18 -15 0 -5 -6 -9 -14
-9 -8 0 -21 -6 -29 -14 -7 -8 -37 -28 -65 -46 -55 -34 -56 -35 -36 -124 3 -11
7 -34 10 -51 11 -63 12 -71 18 -95 3 -14 8 -41 11 -60 3 -19 8 -42 10 -50 2
-8 4 -20 4 -26 1 -6 7 -11 14 -12 26 -2 162 -4 172 -2 6 1 14 2 19 1 21 -4
136 -4 140 0 2 2 43 2 90 -1 47 -3 86 -3 86 0 0 3 27 5 60 5 33 0 60 -2 60 -5
0 -3 28 -4 62 -2 35 1 68 3 73 3 6 0 28 0 50 0 22 -1 47 -1 55 0 8 0 69 0 135
-1 66 -1 125 -1 130 0 6 2 14 2 19 1 10 -2 128 -3 139 -1 9 1 184 1 195 0 25
-4 223 -1 230 4 4 2 14 1 20 -3 7 -4 33 -5 57 -1 25 4 47 5 49 2 4 -4 230 -6
251 -2 6 2 14 2 19 1 21 -4 136 -4 140 0 2 2 43 2 90 -1 47 -3 86 -3 86 0 0 3
27 5 60 5 33 0 60 -2 60 -5 0 -3 28 -4 62 -2 35 1 68 3 73 3 6 0 28 0 50 0 22
-1 47 -1 55 0 8 0 69 0 135 -1 66 -1 125 -1 130 0 6 2 14 2 19 1 10 -2 128 -3
139 -1 9 1 184 1 195 0 25 -4 223 -1 230 4 4 2 14 1 20 -3 7 -4 33 -5 57 -1
25 4 47 5 50 2 7 -7 243 -4 255 3 6 3 10 3 10 -2 0 -12 111 -3 116 10 2 7 6
107 8 222 3 116 5 212 6 215 2 3 1 9 0 15 -2 12 -1 71 3 133 1 23 0 43 -3 43
-3 1 -16 3 -30 4 -14 2 -79 13 -145 25 -129 23 -139 25 -200 34 -22 3 -51 8
-65 11 -14 3 -43 8 -65 11 -22 3 -51 7 -65 10 -27 6 -97 16 -117 17 -7 0 -13
4 -13 9 0 5 -4 7 -9 4 -7 -5 -85 6 -211 30 -59 11 -126 21 -153 23 -4 1 -6 14
-5 29 1 15 -1 32 -4 38 -4 5 -3 16 1 23 5 7 5 28 1 47 -4 18 -4 34 1 36 4 2 4
20 0 41 -5 20 -5 39 0 42 4 3 4 17 -1 30 -5 14 -6 25 -2 25 8 0 6 75 -3 89 -3
5 -1 12 4 15 5 3 6 21 1 40 -4 20 -4 36 1 38 4 2 4 20 0 41 -5 20 -5 39 0 42
4 3 4 17 -1 30 -5 14 -6 25 -2 25 6 0 7 55 1 86 -1 5 0 14 1 19 1 6 1 33 0 60
0 28 0 57 0 65 0 8 0 40 0 70 -1 30 -1 62 -1 70 3 75 3 106 1 115 -1 6 -2 15
0 20 1 6 1 51 0 100 0 50 -1 97 0 105 0 8 0 40 0 70 -1 30 -1 62 -1 70 3 75 3
106 1 115 -1 6 -2 15 0 20 1 6 1 51 0 100 0 50 -1 97 0 105 0 8 0 40 0 70 -1
30 -1 62 -1 70 3 75 3 106 1 115 -1 6 -2 15 0 20 1 6 1 51 0 100 0 50 -1 97 0
105 0 8 0 40 0 70 -1 30 -1 62 0 70 0 8 0 47 0 87 l0 72 90 -2 c50 -1 90 2 90
6 0 4 9 3 20 -3 11 -6 20 -7 20 -3 0 4 36 6 80 3 44 -3 80 -1 80 3 0 4 9 3 20
-3 14 -8 20 -8 20 0 0 8 6 8 20 0 14 -8 20 -8 20 0 0 8 6 8 20 0 14 -8 20 -8
20 0 0 8 6 8 20 0 14 -8 20 -8 20 0 0 8 6 8 20 0 14 -8 20 -8 20 0 0 8 6 8 20
0 14 -8 20 -8 20 0 0 8 6 8 20 0 11 -6 20 -7 20 -3 0 4 36 6 80 3 44 -3 80 -1
80 3 0 4 9 3 20 -3 11 -6 20 -7 20 -3 0 4 36 6 80 3 44 -3 80 -1 80 3 0 4 9 3
20 -3 14 -8 20 -8 20 0 0 8 6 8 20 0 14 -8 20 -8 20 0 0 8 6 8 20 0 11 -6 20
-7 20 -2 0 5 18 6 40 2 22 -4 40 -3 40 2 0 5 9 4 20 -2 11 -6 20 -7 20 -2 0 4
27 5 60 2 33 -3 60 -2 60 2 0 5 9 4 20 -2 11 -6 20 -7 20 -2 0 4 27 5 60 2 33
-3 60 -2 60 2 0 5 9 4 20 -2 11 -6 20 -7 20 -2 0 4 27 5 60 2 33 -3 60 -2 60
2 0 5 9 4 20 -2 11 -6 20 -7 20 -3 0 4 45 6 100 3 55 -3 100 -1 100 3 0 4 9 3
20 -3 11 -6 20 -7 20 -3 0 4 36 6 80 3 44 -3 80 -1 80 3 0 4 9 3 20 -3 14 -8
20 -8 20 0 0 8 6 8 20 0 14 -8 20 -8 20 0 0 8 6 8 20 0 11 -6 20 -7 20 -3 0 4
36 6 80 3 44 -3 80 -1 80 3 0 4 9 3 20 -3 11 -6 20 -7 20 -3 0 4 36 6 80 3 44
-3 80 -1 80 3 0 4 9 3 20 -3 14 -8 20 -8 20 0 0 8 6 8 20 0 14 -8 20 -8 20 0
0 8 6 8 20 0 11 -6 20 -7 20 -3 0 4 33 7 74 5 l73 -3 0 -1233 0 -1232 -109
-52 c-60 -28 -111 -51 -113 -52 -7 -1 -113 -59 -152 -82 -18 -11 -33 -16 -33
-11 0 4 -4 3 -8 -3 -4 -6 -34 -25 -67 -43 -72 -37 -138 -75 -185 -105 -19 -13
-64 -41 -100 -62 -36 -21 -70 -43 -76 -49 -7 -5 -46 -32 -89 -58 -69 -44 -76
-51 -71 -75 3 -15 8 -43 10 -62 3 -19 8 -46 11 -60 3 -14 8 -38 10 -55 3 -16
7 -41 10 -55 3 -14 8 -38 11 -55 2 -16 6 -39 7 -49 5 -26 34 -30 175 -24 39 2
72 1 72 -2 0 -3 28 -4 62 -2 73 3 64 3 166 3 106 0 144 -1 152 -6 3 -2 12 0
19 4 7 5 27 5 45 1 17 -4 40 -4 51 0 11 4 31 4 45 0 14 -3 42 -3 62 0 21 4 38
5 38 1 0 -3 28 -5 62 -3 73 3 64 3 166 3 106 0 144 -1 152 -6 3 -2 12 0 19 4
7 5 27 5 45 1 17 -4 40 -4 51 0 11 4 31 4 45 0 14 -3 42 -3 62 0 21 4 38 5 38
1 0 -3 28 -5 62 -3 35 2 83 2 108 1 58 -2 174 -1 180 2 3 1 9 1 14 0 10 -2
128 -3 139 -1 9 1 184 1 195 0 25 -4 223 -1 230 4 4 2 14 1 20 -3 7 -4 33 -5
57 -1 25 4 47 5 49 2 4 -4 230 -6 251 -2 6 2 14 2 19 1 21 -4 136 -4 140 0 2
2 43 2 90 -1 47 -3 86 -3 86 0 0 3 27 5 60 5 33 0 60 -2 60 -5 0 -3 28 -4 62
-2 35 1 68 3 73 3 6 0 28 0 50 0 22 -1 47 -1 55 0 8 0 69 0 135 -1 66 -1 125
-1 130 0 6 2 14 2 19 1 11 -2 128 -3 141 -1 21 2 181 1 195 -2 18 -4 25 118
25 436 l0 209 -30 4 c-16 2 -95 15 -175 29 -80 14 -172 29 -205 35 -69 10
-106 16 -155 25 -19 4 -42 8 -50 9 -8 1 -33 5 -55 9 -22 4 -67 11 -100 16 -33
6 -71 12 -85 15 -25 5 -70 13 -125 20 -91 13 -101 20 -99 63 1 20 3 42 4 47 1
6 1 12 0 15 -6 17 -5 78 2 93 5 9 6 23 2 29 -10 16 -12 69 -3 94 4 12 5 25 2
28 -10 10 -10 69 -1 89 5 9 6 23 2 29 -10 16 -12 69 -3 94 4 12 5 25 2 28 -10
10 -10 69 -1 89 5 9 6 23 2 29 -10 16 -11 68 -1 68 5 0 5 5 1 12 -10 16 -12
69 -3 94 4 12 5 25 2 28 -10 10 -10 69 -1 89 5 9 6 23 2 29 -10 16 -12 69 -3
94 4 12 5 25 2 28 -10 10 -10 69 -1 89 5 9 6 23 2 29 -10 16 -12 69 -3 94 4
12 5 25 2 28 -10 10 -10 69 -1 89 5 9 6 23 2 29 -10 16 -12 69 -3 94 4 12 5
25 2 28 -10 10 -10 69 -1 89 5 9 6 23 2 29 -10 16 -12 69 -3 94 4 12 5 25 2
28 -10 10 -10 69 -1 89 5 9 6 23 2 29 -10 16 -11 68 -1 68 5 0 5 5 1 12 -10
16 -12 69 -3 94 4 12 5 25 2 28 -10 10 -10 69 -1 89 5 9 6 23 2 29 -10 16 -12
69 -3 94 4 12 5 25 2 28 -10 10 -10 69 -1 89 5 9 6 23 2 29 -10 16 -12 69 -3
94 4 12 5 25 2 28 -10 10 -10 69 -1 89 5 9 6 23 2 29 -10 16 -12 69 -3 94 4
12 5 25 2 28 -10 10 -10 69 -1 89 5 9 6 23 2 29 -10 16 -12 69 -3 94 4 12 5
25 2 28 -10 10 -10 69 -1 89 5 9 6 23 2 29 -10 16 -11 68 -1 68 5 0 5 5 1 12
-10 16 -12 69 -3 94 4 12 5 25 2 28 -10 10 -10 69 -1 89 5 9 6 23 2 29 -10 16
-12 69 -3 94 4 12 5 25 2 28 -10 10 -10 69 -1 89 5 9 6 23 2 29 -10 16 -12 69
-3 94 4 12 5 25 2 28 -10 10 -10 69 -1 89 5 9 6 23 2 29 -10 16 -12 69 -3 94
4 12 5 25 2 28 -10 10 -10 69 -1 89 5 9 6 23 2 29 -10 16 -12 69 -3 94 4 12 5
25 2 28 -10 10 -10 69 -1 89 5 9 6 23 2 29 -10 16 -11 68 -1 68 5 0 5 5 1 12
-10 16 -12 69 -3 94 4 12 5 25 2 28 -10 10 -10 69 -1 89 5 9 6 23 2 29 -10 16
-12 69 -3 94 4 12 5 25 2 28 -10 10 -10 69 -1 89 5 9 6 23 2 29 -10 16 -12 69
-3 94 4 12 5 25 2 28 -10 10 -10 69 -1 89 5 9 6 23 2 29 -10 16 -12 69 -3 94
4 12 5 25 2 28 -10 10 -10 69 -1 89 5 9 6 23 2 29 -10 16 -12 69 -3 94 4 12 5
25 2 28 -10 10 -10 69 -1 89 5 9 6 23 2 29 -10 16 -11 68 -1 68 5 0 5 5 1 12
-10 16 -12 69 -3 94 4 12 5 25 2 28 -9 9 -7 156 1 184 4 12 12 22 18 22 26 0
475 224 563 280 17 11 37 23 45 27 32 15 207 127 243 155 20 16 37 27 37 23 0
-3 6 0 13 7 7 7 30 24 49 38 37 25 41 42 24 97 -3 10 -8 34 -11 53 -3 19 -8
42 -10 50 -4 17 -16 84 -20 120 -2 14 -4 26 -5 28 -4 4 -7 21 -9 42 -1 20 -8
20 -1999 20 l-1997 0 -4 -182 c-7 -399 -7 -458 -2 -459 3 0 17 -2 31 -5 14 -2
57 -9 95 -15 39 -6 79 -13 90 -15 10 -2 37 -6 60 -9 22 -4 54 -8 70 -11 35 -6
80 -13 115 -19 14 -2 43 -7 65 -10 22 -4 49 -8 60 -9 69 -11 123 -19 140 -22
53 -10 74 -14 109 -19 21 -2 46 -7 56 -10 16 -5 17 -78 17 -1333 l0 -1327
-1431 1 c-787 1 -1439 2 -1448 3 -13 1 -15 6 -8 29 4 16 4 36 -2 45 -5 10 -5
17 0 17 8 0 7 63 -2 87 -3 7 -1 15 3 18 5 3 5 20 1 39 -4 20 -4 36 1 38 4 2 4
20 0 41 -5 20 -5 39 0 42 4 3 4 17 -1 30 -5 14 -6 25 -2 25 8 0 6 75 -3 89 -3
5 -1 12 4 15 5 3 6 21 1 40 -4 20 -4 36 1 38 4 2 4 20 0 41 -5 20 -5 39 0 42
4 3 4 17 -1 30 -5 14 -6 25 -2 25 6 0 7 55 1 86 -1 5 0 14 1 19 1 6 1 33 0 60
0 28 0 57 0 65 0 8 0 40 0 70 -1 30 -1 62 -1 70 3 75 3 106 1 115 -1 6 -2 15
0 20 1 6 1 51 0 100 0 50 -1 97 0 105 0 8 0 40 0 70 -1 30 -1 62 -1 70 3 75 3
106 1 115 -1 6 -2 15 0 20 1 6 1 51 0 100 0 50 -1 97 0 105 0 8 0 40 0 70 -1
30 -1 62 -1 70 3 75 3 106 1 115 -1 6 -2 15 0 20 1 6 1 51 0 100 0 50 -1 97 0
105 0 8 0 24 0 35 0 31 9 65 18 63 4 -1 29 8 55 20 79 36 201 93 217 102 8 4
65 34 125 65 92 48 206 112 275 155 8 5 42 26 75 47 33 20 62 39 65 42 3 3 45
33 93 65 97 65 91 51 72 146 -10 53 -27 146 -30 170 -2 14 -5 27 -6 30 -1 3
-3 10 -4 15 0 6 -4 27 -9 48 l-7 37 -1997 0 -1997 0 -3 -223z"/>
<path d="M2133 1802 c-67 -64 -186 -179 -265 -254 -78 -75 -168 -160 -199
-190 -31 -29 -131 -125 -224 -213 -92 -88 -207 -198 -256 -245 -48 -47 -156
-150 -238 -229 l-151 -143 96 -92 c53 -50 135 -128 182 -174 48 -45 89 -81 93
-80 6 3 199 184 369 348 42 41 151 145 240 230 89 85 194 186 234 223 39 37
108 104 153 148 45 43 85 79 88 79 4 0 12 -6 19 -12 8 -7 80 -76 161 -153 183
-173 237 -225 449 -428 93 -89 186 -178 206 -197 20 -19 113 -108 206 -196 93
-89 184 -176 202 -193 l34 -31 27 28 c16 15 88 84 162 154 74 70 173 164 220
210 48 46 153 146 234 223 81 77 182 174 225 215 42 41 139 134 215 205 75 72
147 140 158 153 11 12 25 22 30 22 5 0 39 -29 75 -65 37 -36 99 -95 138 -132
39 -38 149 -142 244 -233 95 -91 199 -190 230 -220 32 -30 131 -125 221 -210
171 -163 208 -199 306 -293 l59 -58 66 63 c36 35 132 126 212 203 81 77 180
172 220 210 40 39 149 142 241 230 92 88 198 189 235 225 173 166 291 275 300
275 9 0 106 -89 343 -317 55 -54 101 -98 102 -98 1 0 35 -33 77 -72 147 -142
394 -378 458 -439 36 -34 116 -110 179 -171 l114 -109 46 44 c53 52 121 116
213 204 36 34 63 65 60 68 -3 3 -1 5 5 5 12 0 30 17 498 465 501 480 559 535
568 535 4 0 7 7 7 15 0 8 4 15 8 15 5 0 18 9 30 21 l22 20 -101 97 c-56 53
-138 132 -182 174 -51 49 -85 75 -93 70 -7 -4 -55 -47 -106 -97 -52 -49 -170
-162 -262 -250 -93 -88 -192 -182 -221 -210 -28 -27 -130 -124 -225 -215 -95
-91 -192 -184 -215 -208 -48 -46 -51 -48 -70 -30 -18 18 -294 280 -374 356
-36 35 -111 107 -167 160 -56 53 -172 165 -259 247 -86 83 -188 179 -225 215
-37 36 -104 100 -148 142 l-81 78 -38 -36 c-76 -71 -337 -320 -398 -379 -34
-33 -129 -123 -210 -200 -81 -77 -182 -174 -225 -215 -42 -41 -139 -133 -215
-205 -75 -71 -147 -140 -158 -152 -28 -31 -34 -29 -77 15 -21 20 -106 102
-190 182 -84 80 -188 179 -230 220 -43 41 -140 134 -216 207 -77 72 -178 169
-226 215 -47 45 -146 140 -220 210 -73 69 -136 129 -139 132 -3 4 -37 -23 -75
-60 -38 -36 -117 -112 -175 -167 -58 -56 -181 -174 -274 -262 -92 -88 -191
-182 -220 -210 -28 -27 -135 -129 -235 -225 -101 -96 -208 -199 -238 -227 -30
-29 -58 -53 -62 -53 -6 0 -81 70 -358 338 -47 45 -86 82 -87 82 -1 0 -36 33
-77 73 -204 196 -428 410 -473 452 -27 26 -93 88 -145 139 -53 50 -105 99
-116 108 -19 16 -24 13 -141 -100z"/>
</g>
</svg>
